#!OML:ASF H:\Terrain\Patient Classification 1\Terrain2\Thursday\justin.ASF
:FULLY-SPECIFIED
:DEGREES
1534
root -12.1884 17.2797 20.2809 -3.03179 21.3724 -4.29849
lowerback 5.20901 -1.15552 3.4179
upperback 1.62096 -1.29011 3.42936
thorax -1.248 -0.640148 1.69083
lowerneck 5.99461 -16.3871 -17.4698
upperneck 3.96516 -23.0808 9.43848
head 3.30632 -11.7282 4.55535
rclavicle 5.0541e-014 3.97569e-015
rhumerus -28.5307 -8.17396 -80.2247
rradius 28.501
rwrist -12.2281
rhand -21.1017 12.3287
rfingers 7.12502
rthumb 5.27613 -17.5857
lclavicle 5.0541e-014 3.97569e-015
lhumerus -42.6125 9.13648 81.6022
lradius 37.1413
lwrist 4.62857
lhand -17.1558 21.4603
lfingers 7.12502
lthumb 9.08496 51.2446
rfemur -12.1014 -12.6825 24.7419
rtibia 43.3227
rfoot -22.2227 -1.297
rtoes 6.45423
lfemur -12.7048 2.05945 -16.8311
ltibia 37.6838
lfoot -20.5463 -4.70043
ltoes -0.282274
1535
root -12.1765 17.2838 20.2745 -2.97328 21.3476 -4.12919
lowerback 5.40617 -1.14411 3.26949
upperback 1.64826 -1.27321 3.39037
thorax -1.32775 -0.632212 1.73661
lowerneck 6.27418 -16.3629 -17.3489
upperneck 3.44991 -23.0679 9.53679
head 3.10265 -11.72 4.6222
rclavicle -6.8531e-014 -3.97569e-015
rhumerus -28.5725 -8.39297 -80.1639
rradius 28.4178
rwrist -11.9937
rhand -21.3319 12.4942
rfingers 7.12502
rthumb 5.05387 -17.4255
lclavicle -6.8531e-014 -3.97569e-015
lhumerus -42.4601 9.17515 81.5386
lradius 36.7635
lwrist 4.28219
lhand -16.4106 21.6661
lfingers 7.12502
lthumb 9.80407 51.4179
rfemur -12.5601 -12.6404 24.4936
rtibia 44.1152
rfoot -21.9945 -1.27789
rtoes 5.6232
lfemur -12.6728 2.35735 -17.0063
ltibia 37.5161
lfoot -20.4587 -5.13345
ltoes 0.4573
1536
root -12.1684 17.2833 20.2716 -2.86456 21.4238 -3.8383
lowerback 5.51522 -1.15326 2.96497
upperback 1.7034 -1.3 3.31999
thorax -1.32669 -0.645511 1.83778
lowerneck 6.47786 -16.3362 -17.3416
upperneck 3.11018 -23.0575 9.71997
head 2.98775 -11.715 4.70821
rclavicle 6.03311e-014 4.29375e-014
rhumerus -28.5522 -8.70858 -80.0876
rradius 28.3397
rwrist -11.5766
rhand -21.3015 12.1753
rfingers 7.12502
rthumb 5.08326 -17.7437
lclavicle 6.03311e-014 4.29375e-014
lhumerus -42.4696 9.16051 81.4939
lradius 36.764
lwrist 3.99302
lhand -15.8834 22.0052
lfingers 7.12502
lthumb 10.3127 51.7323
rfemur -13.0466 -12.6522 24.0987
rtibia 44.9556
rfoot -21.8372 -1.08943
rtoes 5.13659
lfemur -12.6207 2.52847 -17.309
ltibia 37.2973
lfoot -20.3071 -5.41984
ltoes 0.290547
1537
root -12.1593 17.2824 20.2747 -2.68607 21.5657 -3.51627
lowerback 5.48905 -1.20358 2.50489
upperback 1.74599 -1.39565 3.32512
thorax -1.2564 -0.693267 2.10571
lowerneck 6.40709 -16.3628 -17.2293
upperneck 3.06878 -23.0604 9.49122
head 2.94622 -11.7123 4.62921
rclavicle -1.77415e-014 2.06736e-014
rhumerus -28.5281 -8.81914 -79.9812
rradius 28.3231
rwrist -11.4402
rhand -21.1301 12.138
rfingers 7.12502
rthumb 5.24874 -17.777
lclavicle -1.77415e-014 2.06736e-014
lhumerus -42.4654 9.28622 81.6195
lradius 36.6803
lwrist 3.74264
lhand -16.4948 22.3619
lfingers 7.12502
lthumb 9.72277 52.1174
rfemur -13.5539 -12.5158 23.6809
rtibia 45.8232
rfoot -21.5686 -0.903032
rtoes 5.34738
lfemur -12.5678 2.56385 -17.6616
ltibia 37.0432
lfoot -20.0843 -5.82194
ltoes 1.73465
1538
root -12.1472 17.2849 20.2789 -2.58853 21.7666 -3.39815
lowerback 5.40699 -1.27911 2.27031
upperback 1.82208 -1.51488 3.37332
thorax -1.12284 -0.752681 2.2913
lowerneck 5.9271 -16.4582 -17.1904
upperneck 3.4297 -23.1118 9.2292
head 3.10042 -11.73 4.48523
rclavicle 5.1684e-015 3.18055e-015
rhumerus -28.4764 -8.7792 -79.9303
rradius 28.2895
rwrist -11.5954
rhand -20.9912 12.5202
rfingers 7.12502
rthumb 5.38284 -17.3915
lclavicle 5.1684e-015 3.18055e-015
lhumerus -42.2644 9.57087 81.6901
lradius 36.1885
lwrist 3.49863
lhand -16.5572 22.457
lfingers 7.12502
lthumb 9.66257 52.2154
rfemur -14.0261 -12.4204 23.4393
rtibia 46.6972
rfoot -21.1386 -0.653098
rtoes 5.64834
lfemur -12.4851 2.69454 -17.8097
ltibia 36.7762
lfoot -19.884 -6.29134
ltoes 3.34655
1539
root -12.1359 17.2889 20.2841 -2.51681 21.9804 -3.176
lowerback 5.38466 -1.38974 2.01833
upperback 1.95369 -1.683 3.29236
thorax -0.966391 -0.836886 2.35651
lowerneck 5.32885 -16.5166 -17.1814
upperneck 3.9251 -23.1194 9.25009
head 3.34654 -11.7251 4.40848
rclavicle 3.62782e-014 7.95139e-015
rhumerus -28.3392 -8.87345 -80.0333
rradius 28.2237
rwrist -11.4345
rhand -20.9066 12.6584
rfingers 7.12502
rthumb 5.46454 -17.2511
lclavicle 3.62782e-014 7.95139e-015
lhumerus -42.0195 9.91044 81.4871
lradius 35.7275
lwrist 3.39378
lhand -15.934 22.4279
lfingers 7.12502
lthumb 10.2639 52.1575
rfemur -14.4523 -12.3546 23.0502
rtibia 47.5616
rfoot -20.7134 -0.296253
rtoes 5.32521
lfemur -12.3473 2.79234 -18.0614
ltibia 36.5252
lfoot -19.7962 -6.67067
ltoes 3.89864
